<svg width="21" height="11" viewBox="0 0 21 11" fill="none" xmlns="http://www.w3.org/2000/svg">
<path fill-rule="evenodd" clip-rule="evenodd" d="M14.2929 10.1924C14.6835 10.5829 15.3166 10.5829 15.7071 10.1924L19.9498 5.94975L20.0275 5.86253C20.3383 5.47001 20.3124 4.89816 19.9498 4.53553L15.7071 0.292893L15.6199 0.215187C15.2274 -0.0956383 14.6556 -0.0697365 14.2929 0.292893L14.2152 0.380114C13.9044 0.772632 13.9303 1.34448 14.2929 1.70711L16.8285 4.24264L1.00003 4.24264C0.44775 4.24264 3.43323e-05 4.69036 3.43323e-05 5.24264C3.43323e-05 5.79493 0.44775 6.24264 1.00003 6.24264L16.8285 6.24264L14.2929 8.77817L14.2152 8.8654C13.9044 9.25791 13.9303 9.82976 14.2929 10.1924Z" fill="currentColor"/>
</svg>
